<svg id="Layer_1" xmlns="http://www.w3.org/2000/svg" viewBox="0 0 512 512"><style>.st0{fill:#E10035;}</style><path class="st0" d="M446 495.1L433.6 478c-24.7-34-51.6-71.2-75.6-115.3h26c5.9 0 10.7-4.8 10.7-10.7s-4.8-10.7-10.7-10.7h-37c-20.9-42.4-38.4-91.3-48.8-149.3h11.1c5.9 0 10.7-4.8 10.7-10.7s-4.8-10.7-10.6-10.7h-14.6c-4.2-29.6-6.7-61.4-6.7-96 0-1.6-.4-3.1-1-4.5 0-.1 0-.2-.1-.3l-20.2-40.4V10.7C266.7 4.8 261.9 0 256 0s-10.7 4.8-10.7 10.7v18.8l-20.2 40.4v.2c-.7 1.4-1.1 2.9-1.1 4.5 0 34.6-2.5 66.4-6.7 96h-14.6c-5.9 0-10.7 4.8-10.7 10.7s4.8 10.7 10.7 10.7h11.1c-10.4 58-27.9 106.9-48.8 149.3h-26.3c-5.9 0-10.7 4.8-10.7 10.7s4.8 10.7 10.7 10.7H154C130 406.8 103 444 78.4 478L66 495.1c-2.3 3.3-2.7 7.6-.8 11.1s5.5 5.8 9.5 5.8h85.9c3.1 0 5.9-1.3 8-3.5 2-2.3 3-5.3 2.7-8.3-.3-3.1-.5-6.3-.5-9.5 0-47.1 38.3-85.3 85.3-85.3s85.3 38.3 85.3 85.3c0 3.2-.2 6.4-.5 9.5-.3 3 .6 6 2.7 8.3 2 2.2 4.9 3.5 8 3.5h85.9c4 0 7.7-2.2 9.5-5.8 1.7-3.5 1.3-7.9-1-11.1zM245.1 85.3H267c.4 30.4 2.6 58.8 6.2 85.3h-34.4c3.6-26.5 5.8-54.9 6.3-85.3zM235.6 192h40.9c9.9 57.8 26.7 106.7 46.9 149.3h-27.6l-18.9-56.7c-1.5-4.4-5.5-7.3-10.1-7.3h-21.3c-4.6 0-8.7 2.9-10.1 7.3l-18.9 56.7h-27.6c19.9-42.6 36.7-91.5 46.7-149.3zm37.6 149.3h-34.4l14.2-42.7h6l14.2 42.7zm89.5 149.4c0-58.8-47.9-106.7-106.7-106.7s-106.7 47.9-106.7 106.7H95.6l.1-.1c27-37.3 56.7-78.4 82.5-127.9H334c25.8 49.5 55.4 90.6 82.5 127.9l.1.1h-53.9z"/></svg>