<svg id="Capa_1" xmlns="http://www.w3.org/2000/svg" viewBox="0 0 491.1 491.1"><style>.st0{fill:#E10035;}</style><path class="st0" d="M391.1 70.9L273.2 16.1 218.4 134l8 3.7-15.3 32.9 5 2.3-113.5 244.8 91.9 42.7 113.6-244.7 5 2.3 15.3-32.9 8 3.7 54.7-117.9zM280.4 35.8l91 42.3-42.3 91-91-42.3 42.3-91zm-93.2 404.8l-65-30.2 107.4-231.3 65 30.2-107.4 231.3zm118.7-242.4l-75-34.8 9-19.4 75 34.8-9 19.4z"/><path class="st0" d="M321.3 66.9c-7.8-3.6-17-.2-20.6 7.5s-.2 17 7.5 20.6c7.8 3.6 17 .2 20.6-7.5s.2-17-7.5-20.6zm-6.9 14.7c-.3-.2-.5-.6-.3-.9.2-.3.6-.5.9-.3.3.2.5.6.3.9-.1.3-.5.4-.9.3z"/></svg>