<svg id="Layer_1" xmlns="http://www.w3.org/2000/svg" viewBox="0 0 512 512"><style>.st0{fill:#E10035;}</style><path class="st0" d="M0 203.7v256h512v-256H0zm486.4 230.4H25.6V229.3h460.8v204.8z"/><path class="st0" d="M256 254.9c-28.3 0-51.2 34.4-51.2 76.8s22.9 76.8 51.2 76.8 51.2-34.4 51.2-76.8-22.9-76.8-51.2-76.8zm0 128c-10.4 0-25.6-20-25.6-51.2s15.2-51.2 25.6-51.2 25.6 20 25.6 51.2-15.2 51.2-25.6 51.2zM115.2 293.3c-21.2 0-38.4 17.2-38.4 38.4s17.2 38.4 38.4 38.4 38.4-17.2 38.4-38.4-17.2-38.4-38.4-38.4zm0 51.2c-7.1 0-12.8-5.7-12.8-12.8s5.7-12.8 12.8-12.8 12.8 5.7 12.8 12.8-5.7 12.8-12.8 12.8zM396.8 293.3c-21.2 0-38.4 17.2-38.4 38.4s17.2 38.4 38.4 38.4 38.4-17.2 38.4-38.4-17.2-38.4-38.4-38.4zm0 51.2c-7.1 0-12.8-5.7-12.8-12.8s5.7-12.8 12.8-12.8c7.1 0 12.8 5.7 12.8 12.8s-5.7 12.8-12.8 12.8zM413 77.9L193.5 180.3H254l146.7-68.4 31.9 68.4h28.2zM269.4 52.3l-152.5 128h39.8l109.6-92 17.9 21.4 24-11.2z"/></svg>