<?xml version="1.0" encoding="utf-8"?>
<!-- Generator: Adobe Illustrator 20.1.0, SVG Export Plug-In . SVG Version: 6.00 Build 0)  -->
<svg version="1.1" id="Capa_1" xmlns="http://www.w3.org/2000/svg" xmlns:xlink="http://www.w3.org/1999/xlink" x="0px" y="0px"
	 viewBox="0 0 491.1 491.1" style="enable-background:new 0 0 491.1 491.1;" xml:space="preserve">
<style type="text/css">
	.st0{fill:#E10035;}
</style>
<path class="st0" d="M401.5,323c-12,0-23.4,4.7-32,13.2c-8.6,8.6-13.4,19.8-13.4,31.8s4.7,23.2,13.4,31.8c8.7,8.5,20,13.2,32,13.2
	c24.6,0,44.6-20.2,44.6-45S426.1,323,401.5,323z M401.5,393c-13.8,0-25.4-11.4-25.4-25s11.6-25,25.4-25c13.6,0,24.6,11.2,24.6,25
	S415.1,393,401.5,393z M413.1,173c-1.8-1.7-4.2-2.6-6.7-2.6h-51.3c-5.5,0-10,4.5-10,10v82c0,5.5,4.5,10,10,10h81.4
	c5.5,0,10-4.5,10-10v-54.9c0-2.8-1.2-5.5-3.3-7.4L413.1,173z M426.5,252.5h-61.4v-62.1h37.4l24,21.6V252.5z M157.3,323
	c-12,0-23.4,4.7-32,13.2c-8.6,8.6-13.4,19.8-13.4,31.8s4.7,23.2,13.4,31.8c8.7,8.5,20,13.2,32,13.2c24.6,0,44.6-20.2,44.6-45
	S181.9,323,157.3,323z M157.3,393c-13.8,0-25.4-11.4-25.4-25s11.6-25,25.4-25c13.6,0,24.6,11.2,24.6,25S170.9,393,157.3,393z
	 M90.6,335.2H70.5v-26.6c0-5.5-4.5-10-10-10s-10,4.5-10,10v36.6c0,5.5,4.5,10,10,10h30.1c5.5,0,10-4.5,10-10S96.1,335.2,90.6,335.2z
	 M141.3,280.8c0-5.5-4.5-10-10-10H10c-5.5,0-10,4.5-10,10s4.5,10,10,10h121.3C136.8,290.8,141.3,286.4,141.3,280.8z M30.3,244.7
	l121.3,0.7c5.5,0,10-4.4,10.1-9.9c0.1-5.6-4.4-10.1-9.9-10.1l-121.3-0.7c-0.1,0-0.1,0-0.1,0c-5.5,0-10,4.4-10,9.9
	C20.3,240.2,24.8,244.7,30.3,244.7z M50.7,199.2H172c5.5,0,10-4.5,10-10s-4.5-10-10-10H50.7c-5.5,0-10,4.5-10,10
	S45.2,199.2,50.7,199.2z M487.4,185.8L487.4,185.8l-71.6-59.3c-1.8-1.5-4-2.3-6.4-2.3h-84.2v-36c0-5.5-4.5-10-10-10H60.5
	c-5.5,0-10,4.5-10,10v73.2c0,5.5,4.5,10,10,10s10-4.5,10-10V98.2h234.8v237.1h-82c-5.5,0-10,4.5-10,10s4.5,10,10,10h122.1
	c5.5,0,10-4.5,10-10s-4.5-10-10-10h-20.1V144.2h80.6l65.2,54l-0.7,136.9H460c-5.5,0-10,4.5-10,10s4.5,10,10,10h20.3
	c5.5,0,10-4.4,10-9.9l0.8-151.6C491,190.5,489.7,187.7,487.4,185.8z"/>
</svg>
