<?xml version="1.0" encoding="utf-8"?>
<!-- Generator: Adobe Illustrator 20.1.0, SVG Export Plug-In . SVG Version: 6.00 Build 0)  -->
<svg version="1.1" id="Capa_1" xmlns="http://www.w3.org/2000/svg" xmlns:xlink="http://www.w3.org/1999/xlink" x="0px" y="0px"
	 viewBox="0 0 491.1 491.1" style="enable-background:new 0 0 491.1 491.1;" xml:space="preserve">
<style type="text/css">
	.st0{fill:#E10035;}
</style>
<g>
	<path class="st0" d="M391.1,70.9L273.2,16.1L218.4,134l8,3.7l-15.3,32.9l5,2.3L102.6,417.7l91.9,42.7l113.6-244.7l5,2.3l15.3-32.9
		l8,3.7L391.1,70.9z M280.4,35.8l91,42.3l-42.3,91l-91-42.3L280.4,35.8z M187.2,440.6l-65-30.2l107.4-231.3l65,30.2L187.2,440.6z
		 M305.9,198.2l-75-34.8l9-19.4l75,34.8L305.9,198.2z"/>
	<path class="st0" d="M321.3,66.9c-7.8-3.6-17-0.2-20.6,7.5s-0.2,17,7.5,20.6c7.8,3.6,17,0.2,20.6-7.5S329,70.5,321.3,66.9z
		 M314.4,81.6c-0.3-0.2-0.5-0.6-0.3-0.9c0.2-0.3,0.6-0.5,0.9-0.3c0.3,0.2,0.5,0.6,0.3,0.9C315.2,81.6,314.8,81.7,314.4,81.6z"/>
</g>
</svg>
