<?xml version="1.0" encoding="utf-8"?>
<!-- Generator: Adobe Illustrator 20.1.0, SVG Export Plug-In . SVG Version: 6.00 Build 0)  -->
<svg version="1.1" id="Layer_1" xmlns="http://www.w3.org/2000/svg" xmlns:xlink="http://www.w3.org/1999/xlink" x="0px" y="0px"
	 viewBox="0 0 512 512" style="enable-background:new 0 0 512 512;" xml:space="preserve">
<style type="text/css">
	.st0{fill:#E10035;}
</style>
<g>
	<g>
		<path class="st0" d="M0,203.7v256h512v-256H0z M486.4,434.1H25.6V229.3h460.8V434.1z"/>
	</g>
</g>
<g>
	<g>
		<path class="st0" d="M256,254.9c-28.3,0-51.2,34.4-51.2,76.8s22.9,76.8,51.2,76.8s51.2-34.4,51.2-76.8
			C307.2,289.3,284.3,254.9,256,254.9z M256,382.9c-10.4,0-25.6-20-25.6-51.2s15.2-51.2,25.6-51.2s25.6,20,25.6,51.2
			S266.4,382.9,256,382.9z"/>
	</g>
</g>
<g>
	<g>
		<path class="st0" d="M115.2,293.3c-21.2,0-38.4,17.2-38.4,38.4s17.2,38.4,38.4,38.4s38.4-17.2,38.4-38.4S136.4,293.3,115.2,293.3z
			 M115.2,344.5c-7.1,0-12.8-5.7-12.8-12.8s5.7-12.8,12.8-12.8s12.8,5.7,12.8,12.8S122.3,344.5,115.2,344.5z"/>
	</g>
</g>
<g>
	<g>
		<path class="st0" d="M396.8,293.3c-21.2,0-38.4,17.2-38.4,38.4s17.2,38.4,38.4,38.4s38.4-17.2,38.4-38.4
			C435.2,310.5,418,293.3,396.8,293.3z M396.8,344.5c-7.1,0-12.8-5.7-12.8-12.8s5.7-12.8,12.8-12.8c7.1,0,12.8,5.7,12.8,12.8
			S403.9,344.5,396.8,344.5z"/>
	</g>
</g>
<g>
	<g>
		<polygon class="st0" points="413,77.9 193.5,180.3 254,180.3 400.7,111.9 432.6,180.3 460.8,180.3 		"/>
	</g>
</g>
<g>
	<g>
		<polygon class="st0" points="269.4,52.3 116.9,180.3 156.7,180.3 266.3,88.3 284.2,109.7 308.2,98.5 		"/>
	</g>
</g>
</svg>
